<svg width="18" height="18" viewBox="0 0 18 18" fill="none" xmlns="http://www.w3.org/2000/svg">
<g id="fi_80942" clip-path="url(#clip0_1472_27139)">
<g id="Group">
<path id="Vector" d="M5.40586 11.5089C5.40586 11.2182 5.2042 11.0449 4.84839 11.0449C4.70309 11.0449 4.60469 11.0593 4.55322 11.073V12.0054C4.61416 12.0192 4.68908 12.0237 4.79234 12.0237C5.17161 12.0237 5.40586 11.8321 5.40586 11.5089Z" fill="#7A8490"/>
<path id="Vector_2" d="M7.60935 11.0547C7.45001 11.0547 7.34704 11.0684 7.28613 11.0827V13.1478C7.34707 13.1621 7.44547 13.1621 7.53444 13.1621C8.18084 13.1667 8.60243 12.8109 8.60243 12.0569C8.607 11.4013 8.22284 11.0547 7.60935 11.0547Z" fill="#7A8490"/>
<path id="Vector_3" d="M11.7007 0.25H4.67197C3.64514 0.25 2.80941 1.08631 2.80941 2.11256V8.99996H2.62749C2.21306 8.99996 1.87695 9.33574 1.87695 9.75054V14.3023C1.87695 14.717 2.21302 15.0528 2.62749 15.0528H2.80941V15.8874C2.80941 16.9148 3.64514 17.75 4.67197 17.75H14.2623C15.2885 17.75 16.1243 16.9147 16.1243 15.8874V4.65817L11.7007 0.25ZM3.84593 10.572C4.06589 10.5348 4.37506 10.5068 4.81065 10.5068C5.25086 10.5068 5.56461 10.5908 5.77542 10.7596C5.97679 10.9186 6.11268 11.1812 6.11268 11.4901C6.11268 11.799 6.00971 12.0616 5.82235 12.2395C5.57865 12.4689 5.21826 12.5719 4.79668 12.5719C4.70285 12.5719 4.61876 12.5672 4.55299 12.5581V13.6868H3.84593V10.572ZM14.2623 16.6093H4.67197C4.27437 16.6093 3.95061 16.2855 3.95061 15.8874V15.0528H12.8908C13.3053 15.0528 13.6414 14.717 13.6414 14.3023V9.75054C13.6414 9.33574 13.3053 8.99996 12.8908 8.99996H3.95061V2.11256C3.95061 1.71554 4.27441 1.39178 4.67197 1.39178L11.2739 1.38488V3.82521C11.2739 4.538 11.8523 5.11689 12.5656 5.11689L14.9562 5.11003L14.9831 15.8874C14.9831 16.2855 14.6599 16.6093 14.2623 16.6093ZM6.5686 13.6725V10.572C6.83085 10.5302 7.17265 10.5068 7.53336 10.5068C8.13284 10.5068 8.52157 10.6143 8.82617 10.8437C9.15397 11.0874 9.35988 11.4758 9.35988 12.0335C9.35988 12.6376 9.13992 13.0546 8.83528 13.312C8.50292 13.5883 7.99698 13.7193 7.37889 13.7193C7.00874 13.7193 6.74649 13.6959 6.5686 13.6725ZM11.6801 11.8368V12.4174H10.5466V13.6868H9.8301V10.5302H11.7596V11.1154H10.5466V11.8368H11.6801Z" fill="#7A8490"/>
</g>
</g>
<defs>
<clipPath id="clip0_1472_27139">
<rect width="17.5" height="17.5" fill="white" transform="translate(0.25 0.25)"/>
</clipPath>
</defs>
</svg>
