<svg width="20" height="18" viewBox="0 0 20 18" fill="none" xmlns="http://www.w3.org/2000/svg">
<g id="_x30_1_x2C__wholesale_x2C__pallet_x2C__logistics_x2C__shipping_x2C__delivery_x2C__boxes">
<g id="XMLID_480_">
<g id="XMLID_9_">
<path id="XMLID_191_" d="M19.1667 15.8747H0.833333C0.373083 15.8747 0 15.5016 0 15.0413C0 14.5811 0.373083 14.208 0.833333 14.208H19.1667C19.6269 14.208 20 14.5811 20 15.0413C20 15.5016 19.6269 15.8747 19.1667 15.8747Z" fill="#111A24"/>
</g>
<g id="XMLID_8_">
<path id="XMLID_190_" d="M2.49984 17.5413C2.03959 17.5413 1.6665 17.1683 1.6665 16.708V15.0413C1.6665 14.5811 2.03959 14.208 2.49984 14.208C2.96009 14.208 3.33317 14.5811 3.33317 15.0413V16.708C3.33317 17.1683 2.96009 17.5413 2.49984 17.5413Z" fill="#111A24"/>
</g>
<g id="XMLID_7_">
<path id="XMLID_189_" d="M17.4998 17.5413C17.0396 17.5413 16.6665 17.1683 16.6665 16.708V15.0413C16.6665 14.5811 17.0396 14.208 17.4998 14.208C17.9601 14.208 18.3332 14.5811 18.3332 15.0413V16.708C18.3332 17.1683 17.9601 17.5413 17.4998 17.5413Z" fill="#111A24"/>
</g>
<g id="XMLID_6_">
<path id="XMLID_186_" d="M10 15.8753H3.33333C2.87308 15.8753 2.5 15.5022 2.5 15.042V8.37533C2.5 7.91508 2.87308 7.54199 3.33333 7.54199H10C10.4603 7.54199 10.8333 7.91508 10.8333 8.37533V15.042C10.8333 15.5022 10.4603 15.8753 10 15.8753ZM4.16667 14.2087H9.16667V9.20866H4.16667V14.2087Z" fill="#111A24"/>
</g>
<g id="XMLID_5_">
<path id="XMLID_185_" d="M6.66683 10.8753C6.20658 10.8753 5.8335 10.5022 5.8335 10.042V8.37533C5.8335 7.91508 6.20658 7.54199 6.66683 7.54199C7.12708 7.54199 7.50016 7.91508 7.50016 8.37533V10.042C7.50016 10.5022 7.12708 10.8753 6.66683 10.8753Z" fill="#111A24"/>
</g>
<g id="XMLID_4_">
<path id="XMLID_182_" d="M16.6665 15.8753H9.99984C9.53959 15.8753 9.1665 15.5022 9.1665 15.042V8.37533C9.1665 7.91508 9.53959 7.54199 9.99984 7.54199H16.6665C17.1268 7.54199 17.4998 7.91508 17.4998 8.37533V15.042C17.4998 15.5022 17.1268 15.8753 16.6665 15.8753ZM10.8332 14.2087H15.8332V9.20866H10.8332V14.2087Z" fill="#111A24"/>
</g>
<g id="XMLID_3_">
<path id="XMLID_181_" d="M13.3333 10.8753C12.8731 10.8753 12.5 10.5022 12.5 10.042V8.37533C12.5 7.91508 12.8731 7.54199 13.3333 7.54199C13.7936 7.54199 14.1667 7.91508 14.1667 8.37533V10.042C14.1667 10.5022 13.7936 10.8753 13.3333 10.8753Z" fill="#111A24"/>
</g>
<g id="XMLID_2_">
<path id="XMLID_178_" d="M13.3335 9.20833H6.66683C6.20658 9.20833 5.8335 8.83525 5.8335 8.375V1.70833C5.8335 1.24808 6.20658 0.875 6.66683 0.875H13.3335C13.7937 0.875 14.1668 1.24808 14.1668 1.70833V8.375C14.1668 8.83525 13.7937 9.20833 13.3335 9.20833ZM7.50016 7.54167H12.5002V2.54167H7.50016V7.54167Z" fill="#111A24"/>
</g>
<g id="XMLID_1_">
<path id="XMLID_177_" d="M9.99984 4.20833C9.53959 4.20833 9.1665 3.83525 9.1665 3.375V1.70833C9.1665 1.24808 9.53959 0.875 9.99984 0.875C10.4601 0.875 10.8332 1.24808 10.8332 1.70833V3.375C10.8332 3.83525 10.4601 4.20833 9.99984 4.20833Z" fill="#111A24"/>
</g>
</g>
</g>
</svg>
