<svg width="16" height="16" viewBox="0 0 16 16" fill="none" xmlns="http://www.w3.org/2000/svg">
<g id="Scissors">
<path id="Vector" d="M3.75 6.5C4.7165 6.5 5.5 5.7165 5.5 4.75C5.5 3.7835 4.7165 3 3.75 3C2.7835 3 2 3.7835 2 4.75C2 5.7165 2.7835 6.5 3.75 6.5Z" stroke="white" stroke-width="1.5" stroke-linecap="round" stroke-linejoin="round"/>
<path id="Vector_2" d="M3.75 13C4.7165 13 5.5 12.2165 5.5 11.25C5.5 10.2835 4.7165 9.5 3.75 9.5C2.7835 9.5 2 10.2835 2 11.25C2 12.2165 2.7835 13 3.75 13Z" stroke="white" stroke-width="1.5" stroke-linecap="round" stroke-linejoin="round"/>
<path id="Vector_3" d="M8.50017 8L5.19434 10.2619" stroke="white" stroke-width="1.5" stroke-linecap="round" stroke-linejoin="round"/>
<path id="Vector_4" d="M14.4996 3.89453L10.2705 6.78812" stroke="white" stroke-width="1.5" stroke-linecap="round" stroke-linejoin="round"/>
<path id="Vector_5" d="M14.5002 12.1055L5.19434 5.73828" stroke="white" stroke-width="1.5" stroke-linecap="round" stroke-linejoin="round"/>
</g>
</svg>
