<svg width="35" height="35" viewBox="0 0 35 35" fill="none" xmlns="http://www.w3.org/2000/svg">
<rect x="0.000488281" width="35" height="35" rx="17.5" fill="#E04050"/>
<path d="M11.6966 25L10.2966 23.6L23.3066 10.6L24.7066 12.01L11.6966 25ZM21.7066 25.3C21.0466 25.3 20.4432 25.14 19.8966 24.82C19.3566 24.4933 18.9232 24.06 18.5966 23.52C18.2699 22.9733 18.1066 22.3667 18.1066 21.7C18.1066 21.0467 18.2732 20.4467 18.6066 19.9C18.9399 19.3533 19.3799 18.9167 19.9266 18.59C20.4732 18.2633 21.0666 18.1 21.7066 18.1C22.3666 18.1 22.9699 18.2633 23.5166 18.59C24.0632 18.91 24.4966 19.3433 24.8166 19.89C25.1432 20.43 25.3066 21.0333 25.3066 21.7C25.3066 22.3667 25.1432 22.9733 24.8166 23.52C24.4966 24.06 24.0632 24.4933 23.5166 24.82C22.9699 25.14 22.3666 25.3 21.7066 25.3ZM21.7066 23.49C22.0332 23.49 22.3299 23.41 22.5966 23.25C22.8699 23.0833 23.0866 22.8633 23.2466 22.59C23.4132 22.3167 23.4966 22.02 23.4966 21.7C23.4966 21.38 23.4132 21.0833 23.2466 20.81C23.0866 20.5367 22.8699 20.32 22.5966 20.16C22.3299 19.9933 22.0332 19.91 21.7066 19.91C21.3866 19.91 21.0899 19.9933 20.8166 20.16C20.5499 20.32 20.3332 20.5367 20.1666 20.81C20.0066 21.0833 19.9266 21.38 19.9266 21.7C19.9266 22.02 20.0066 22.3167 20.1666 22.59C20.3332 22.8633 20.5499 23.0833 20.8166 23.25C21.0899 23.41 21.3866 23.49 21.7066 23.49ZM13.2966 17.5C12.6366 17.5 12.0332 17.34 11.4866 17.02C10.9399 16.6933 10.5032 16.26 10.1766 15.72C9.85658 15.1733 9.69658 14.5667 9.69658 13.9C9.69658 13.2467 9.86325 12.6467 10.1966 12.1C10.5299 11.5533 10.9699 11.1167 11.5166 10.79C12.0632 10.4633 12.6566 10.3 13.2966 10.3C13.9566 10.3 14.5566 10.4633 15.0966 10.79C15.6432 11.11 16.0799 11.5433 16.4066 12.09C16.7332 12.63 16.8966 13.2333 16.8966 13.9C16.8966 14.5667 16.7332 15.1733 16.4066 15.72C16.0799 16.26 15.6432 16.6933 15.0966 17.02C14.5566 17.34 13.9566 17.5 13.2966 17.5ZM13.2966 15.69C13.6166 15.69 13.9132 15.61 14.1866 15.45C14.4599 15.2833 14.6766 15.0633 14.8366 14.79C15.0032 14.5167 15.0866 14.22 15.0866 13.9C15.0866 13.58 15.0032 13.2833 14.8366 13.01C14.6766 12.7367 14.4599 12.52 14.1866 12.36C13.9132 12.1933 13.6166 12.11 13.2966 12.11C12.9766 12.11 12.6799 12.1933 12.4066 12.36C12.1399 12.52 11.9232 12.7367 11.7566 13.01C11.5899 13.2833 11.5066 13.58 11.5066 13.9C11.5066 14.22 11.5899 14.5167 11.7566 14.79C11.9232 15.0633 12.1399 15.2833 12.4066 15.45C12.6732 15.61 12.9699 15.69 13.2966 15.69Z" fill="white"/>
</svg>
