<svg width="17" height="16" viewBox="0 0 17 16" fill="none" xmlns="http://www.w3.org/2000/svg">
<g id="ListBullets">
<path id="Vector" d="M6 4H14" stroke="white" stroke-width="1.5" stroke-linecap="round" stroke-linejoin="round"/>
<path id="Vector_2" d="M6 8H13.9996" stroke="white" stroke-width="1.5" stroke-linecap="round" stroke-linejoin="round"/>
<path id="Vector_3" d="M6 12H13.9996" stroke="white" stroke-width="1.5" stroke-linecap="round" stroke-linejoin="round"/>
<g id="Vector_4">
<mask id="path-4-inside-1_1547_5228" fill="white">
<path d="M3.25 4.75C3.66421 4.75 4 4.41421 4 4C4 3.58579 3.66421 3.25 3.25 3.25C2.83579 3.25 2.5 3.58579 2.5 4C2.5 4.41421 2.83579 4.75 3.25 4.75Z"/>
</mask>
<path d="M3.25 4.75C3.66421 4.75 4 4.41421 4 4C4 3.58579 3.66421 3.25 3.25 3.25C2.83579 3.25 2.5 3.58579 2.5 4C2.5 4.41421 2.83579 4.75 3.25 4.75Z" fill="white"/>
<path d="M2.5 4C2.5 3.58579 2.83579 3.25 3.25 3.25V6.25C4.49264 6.25 5.5 5.24264 5.5 4H2.5ZM3.25 3.25C3.66421 3.25 4 3.58579 4 4H1C1 5.24264 2.00736 6.25 3.25 6.25V3.25ZM4 4C4 4.41421 3.66421 4.75 3.25 4.75V1.75C2.00736 1.75 1 2.75736 1 4H4ZM3.25 4.75C2.83579 4.75 2.5 4.41421 2.5 4H5.5C5.5 2.75736 4.49264 1.75 3.25 1.75V4.75Z" fill="white" mask="url(#path-4-inside-1_1547_5228)"/>
</g>
<g id="Vector_5">
<mask id="path-6-inside-2_1547_5228" fill="white">
<path d="M3.25 8.75C3.66421 8.75 4 8.41421 4 8C4 7.58579 3.66421 7.25 3.25 7.25C2.83579 7.25 2.5 7.58579 2.5 8C2.5 8.41421 2.83579 8.75 3.25 8.75Z"/>
</mask>
<path d="M3.25 8.75C3.66421 8.75 4 8.41421 4 8C4 7.58579 3.66421 7.25 3.25 7.25C2.83579 7.25 2.5 7.58579 2.5 8C2.5 8.41421 2.83579 8.75 3.25 8.75Z" fill="white"/>
<path d="M2.5 8C2.5 7.58579 2.83579 7.25 3.25 7.25V10.25C4.49264 10.25 5.5 9.24264 5.5 8H2.5ZM3.25 7.25C3.66421 7.25 4 7.58579 4 8H1C1 9.24264 2.00736 10.25 3.25 10.25V7.25ZM4 8C4 8.41421 3.66421 8.75 3.25 8.75V5.75C2.00736 5.75 1 6.75736 1 8H4ZM3.25 8.75C2.83579 8.75 2.5 8.41421 2.5 8H5.5C5.5 6.75736 4.49264 5.75 3.25 5.75V8.75Z" fill="white" mask="url(#path-6-inside-2_1547_5228)"/>
</g>
<path id="Vector_6" d="M3.25 12.75C3.66421 12.75 4 12.4142 4 12C4 11.5858 3.66421 11.25 3.25 11.25C2.83579 11.25 2.5 11.5858 2.5 12C2.5 12.4142 2.83579 12.75 3.25 12.75Z" fill="white"/>
</g>
</svg>
