<svg width="20" height="20" viewBox="0 0 20 20" fill="none" xmlns="http://www.w3.org/2000/svg">
<g id="Package">
<path id="Vector" d="M17.5 13.8529V6.14648C17.5 6.03559 17.4705 5.92668 17.4145 5.83096C17.3585 5.73523 17.2781 5.65612 17.1814 5.60175L10.3064 1.73456C10.2129 1.68194 10.1073 1.6543 10 1.6543C9.89266 1.6543 9.78714 1.68194 9.69359 1.73456L2.81859 5.60175C2.72193 5.65612 2.64148 5.73523 2.58549 5.83096C2.52951 5.92668 2.5 6.03559 2.5 6.14648V13.8529C2.5 13.9638 2.52951 14.0727 2.58549 14.1685C2.64148 14.2642 2.72193 14.3433 2.81859 14.3977L9.69359 18.2648C9.78714 18.3175 9.89266 18.3451 10 18.3451C10.1073 18.3451 10.2129 18.3175 10.3064 18.2648L17.1814 14.3977C17.2781 14.3433 17.3585 14.2642 17.4145 14.1685C17.4705 14.0727 17.5 13.9638 17.5 13.8529Z" stroke="#53C0D8" stroke-width="1.5" stroke-linecap="round" stroke-linejoin="round"/>
<path id="Vector_2" d="M13.8298 11.9149V7.85242L6.25 3.67188" stroke="#53C0D8" stroke-width="1.5" stroke-linecap="round" stroke-linejoin="round"/>
<path id="Vector_3" d="M17.4132 5.82988L10.0735 9.99965L2.58594 5.8291" stroke="#53C0D8" stroke-width="1.5" stroke-linecap="round" stroke-linejoin="round"/>
<path id="Vector_4" d="M10.0733 10L10 18.3454" stroke="#53C0D8" stroke-width="1.5" stroke-linecap="round" stroke-linejoin="round"/>
</g>
</svg>
