<svg width="14" height="14" viewBox="0 0 14 14" fill="none" xmlns="http://www.w3.org/2000/svg">
<path id="Vector" d="M4.27977 6.78075C4.79842 7.84109 5.65792 8.69668 6.7206 9.2105C6.79835 9.24734 6.88436 9.2633 6.97015 9.25681C7.05595 9.25032 7.13857 9.2216 7.2099 9.17348L8.77462 8.13008C8.84383 8.08393 8.92345 8.05578 9.00628 8.04817C9.08911 8.04056 9.17253 8.05374 9.24898 8.0865L12.1763 9.34107C12.2757 9.38331 12.3588 9.45672 12.4128 9.55025C12.4669 9.64378 12.4892 9.75235 12.4762 9.85961C12.3837 10.5836 12.0304 11.2491 11.4826 11.7314C10.9347 12.2137 10.2299 12.4798 9.5 12.4798C7.24566 12.4798 5.08365 11.5843 3.48959 9.9902C1.89553 8.39615 1 6.23414 1 3.9798C1.00004 3.24991 1.26612 2.54506 1.74843 1.99722C2.23073 1.44939 2.89618 1.09613 3.62019 1.00361C3.72745 0.99063 3.83602 1.01286 3.92955 1.06695C4.02307 1.12104 4.09649 1.20406 4.13873 1.3035L5.39439 4.23337C5.42687 4.30915 5.4401 4.39179 5.43291 4.47392C5.42572 4.55606 5.39833 4.63514 5.35318 4.70413L4.31341 6.29287C4.26608 6.36433 4.2381 6.44686 4.23221 6.53237C4.22631 6.61788 4.2427 6.70346 4.27977 6.78075V6.78075Z" stroke="#53C0D8" stroke-width="1.5" stroke-linecap="round" stroke-linejoin="round"/>
</svg>
