<svg width="16" height="14" viewBox="0 0 16 14" fill="none" xmlns="http://www.w3.org/2000/svg">
<g id="Warning">
<path id="Vector" d="M8 5.5V8" stroke="#FFBA07" stroke-width="1.5" stroke-linecap="round" stroke-linejoin="round"/>
<path id="Vector_2" d="M7.13451 1.49904L1.63599 10.9986C1.54801 11.1506 1.50161 11.3231 1.50147 11.4987C1.50132 11.6743 1.54743 11.8469 1.63516 11.999C1.7229 12.1512 1.84915 12.2776 2.00123 12.3654C2.1533 12.4533 2.32584 12.4995 2.50147 12.4995H13.4985C13.6741 12.4995 13.8467 12.4533 13.9987 12.3654C14.1508 12.2776 14.2771 12.1512 14.3648 11.999C14.4525 11.8469 14.4986 11.6743 14.4985 11.4987C14.4984 11.3231 14.452 11.1506 14.364 10.9986L8.86545 1.49904C8.77761 1.34728 8.65141 1.22129 8.4995 1.1337C8.3476 1.04611 8.17533 1 7.99998 1C7.82463 1 7.65237 1.04611 7.50046 1.1337C7.34855 1.22129 7.22235 1.34728 7.13451 1.49904V1.49904Z" stroke="#FFBA07" stroke-width="1.5" stroke-linecap="round" stroke-linejoin="round"/>
<path id="Vector_3" d="M8 11C8.41421 11 8.75 10.6642 8.75 10.25C8.75 9.83579 8.41421 9.5 8 9.5C7.58579 9.5 7.25 9.83579 7.25 10.25C7.25 10.6642 7.58579 11 8 11Z" fill="#FFBA07"/>
</g>
</svg>
