<svg width="316" height="240" viewBox="0 0 316 240" fill="none" xmlns="http://www.w3.org/2000/svg">
<path fill-rule="evenodd" clip-rule="evenodd" d="M142.095 277.545L141.864 277.354C95.326 238.706 36.0175 206.477 -12.9154 193.248L-13.156 193.182L-13.2206 192.944C-14.1344 189.64 -15.1285 186.196 -16.153 182.648C-21.5209 164.053 -27.5111 143.3 -27.358 124.852L-27.4603 124.798L-27.3555 124.597C-27.3252 121.933 -27.1658 119.317 -26.8568 116.764C-25.9223 109.043 -22.9814 102.503 -19.8664 95.5776L-19.8478 95.5361L-19.8478 95.536C-17.6418 90.6272 -15.3615 85.5531 -13.8886 80.0421C-8.74845 60.8157 -8.59063 38.9351 -8.43951 17.7741L-8.43915 17.7244L-8.43914 17.7241C-8.38595 10.3874 -8.33567 3.45496 -8.08073 -3.27941L-8.05464 -3.97192L-7.44253 -3.64678C22.8888 12.5183 47.5251 23.2437 83.6951 30.231C104.985 34.3445 134.791 42.4954 154.596 53.0397C178.619 65.831 205.756 91.7485 213.502 99.3866C240.64 126.155 263.489 140.739 293.787 156.886L294.398 157.211L293.839 157.621C272.226 173.359 252.441 190.829 233.306 207.725L233.302 207.729C205.395 232.375 176.536 257.857 142.357 277.396L142.095 277.545ZM-26.4919 125.304C-26.5044 129.509 -26.1984 133.837 -25.6549 138.232C-20.3586 141.092 -15.0462 143.946 -9.72271 146.794C-9.74173 146.597 -9.76024 146.4 -9.77824 146.203C-10.144 142.192 -10.0635 138.13 -9.54936 134.08C-15.1725 131.19 -20.8318 128.26 -26.4919 125.304ZM-23.4654 151.223C-24.296 147.221 -25.0001 143.231 -25.5196 139.292C-20.2331 142.145 -14.9308 144.993 -9.61765 147.835C-9.20155 151.781 -8.58812 155.71 -7.84558 159.538C-13.0618 156.764 -18.2705 153.991 -23.4654 151.223ZM-23.232 152.332C-22.3206 156.607 -21.2709 160.892 -20.1535 165.139C-15.0008 167.61 -9.87669 170.087 -4.77951 172.57C-5.81546 168.792 -6.79423 164.779 -7.62805 160.638C-12.8386 157.867 -18.0421 155.098 -23.232 152.332ZM-16.1056 179.68C-17.3705 175.288 -18.6514 170.789 -19.8615 166.243C-14.7028 168.718 -9.57276 171.199 -4.46965 173.687C-3.28226 177.92 -2.03246 181.837 -0.848447 185.283C-5.98648 183.298 -11.0763 181.428 -16.1056 179.68ZM-15.8106 180.703C-15.6464 181.273 -15.4825 181.84 -15.3193 182.406L-15.319 182.407C-14.3188 185.871 -13.3466 189.24 -12.4508 192.475C-7.16228 193.91 -1.75356 195.567 3.74632 197.428C2.77788 195.11 1.23634 191.258 -0.475422 186.36C-5.63953 184.356 -10.7555 182.469 -15.8106 180.703ZM0.589626 186.774C2.36723 191.806 3.93511 195.655 4.82355 197.75L4.76609 197.775C9.62395 199.438 14.5513 201.259 19.5282 203.228C18.0195 199.969 16.6398 196.469 15.4091 192.821C10.4339 190.706 5.49053 188.688 0.589626 186.774ZM16.4814 193.278C17.7454 196.943 19.1611 200.448 20.7077 203.697C23.6101 204.857 26.5288 206.067 29.4598 207.325C29.5405 204.615 29.6779 201.907 29.8683 199.202C25.3865 197.153 20.9216 195.177 16.4814 193.278ZM29.9354 198.278C25.3048 196.163 20.6923 194.127 16.1065 192.173C15.0525 189.016 14.1109 185.748 13.2946 182.432C19.0928 185.313 24.8581 188.205 30.5932 191.109C30.3345 193.497 30.1144 195.886 29.9354 198.278ZM30.7113 199.588C30.5254 202.288 30.3927 204.99 30.3168 207.694C34.2084 209.374 38.1211 211.138 42.0456 212.981C42.8974 210.705 43.7476 208.435 44.5964 206.17C39.956 203.902 35.3249 201.706 30.7113 199.588ZM44.9026 205.353C40.1817 203.046 35.4703 200.814 30.7771 198.663C30.9516 196.283 31.1672 193.905 31.4212 191.529C36.6668 194.187 41.8871 196.856 47.0842 199.536C46.3581 201.471 45.6309 203.41 44.9026 205.353ZM45.3806 206.554C44.5335 208.815 43.6849 211.081 42.8347 213.352C47.4833 215.547 52.1477 217.85 56.8128 220.256L59.8587 213.876C55.0295 211.36 50.2004 208.918 45.3806 206.554ZM60.2331 213.091C55.3811 210.564 50.5293 208.111 45.6869 205.737C46.413 203.8 47.138 201.867 47.8619 199.937C52.8624 202.518 57.8415 205.11 62.801 207.712L60.2331 213.091ZM60.6285 214.277L57.5835 220.654C62.1348 223.011 66.6859 225.465 71.2226 228.007C72.4245 225.972 73.6238 223.938 74.8205 221.903C70.0961 219.294 65.3625 216.751 60.6285 214.277ZM75.2608 221.155C70.5145 218.533 65.7589 215.978 61.0029 213.493L63.5703 208.116C68.5076 210.71 73.4256 213.315 78.3261 215.932C77.3062 217.672 76.2845 219.413 75.2608 221.155ZM75.5808 222.324C74.3832 224.36 73.183 226.396 71.9802 228.432C76.439 230.941 80.8832 233.535 85.2994 236.206C86.7137 234.229 88.1253 232.246 89.5341 230.258C84.898 227.553 80.2441 224.907 75.5808 222.324ZM90.0378 229.547C85.3807 226.829 80.7057 224.17 76.0211 221.575C77.0469 219.83 78.0707 218.086 79.0927 216.341C84.0024 218.966 88.8946 221.603 93.771 224.253C92.5288 226.021 91.2844 227.786 90.0378 229.547ZM90.2873 230.698C88.876 232.69 87.4618 234.677 86.0449 236.658C90.3471 239.271 94.6218 241.958 98.8568 244.711C100.932 243.024 102.976 241.298 104.991 239.538C100.117 236.528 95.2124 233.58 90.2873 230.698ZM105.673 238.939C100.74 235.891 95.7762 232.905 90.7909 229.987C92.0425 228.219 93.292 226.446 94.5392 224.671C100.134 227.714 105.709 230.775 111.266 233.856C109.426 235.579 107.562 237.275 105.673 238.939ZM105.764 240.016C103.747 241.783 101.7 243.515 99.6215 245.209C103.799 247.936 107.937 250.728 112.024 253.577C115.279 252.57 118.473 251.411 121.597 250.106C116.365 246.675 111.083 243.309 105.764 240.016ZM122.558 249.699C117.235 246.202 111.859 242.772 106.445 239.417C108.343 237.741 110.216 236.034 112.064 234.298C118.611 237.931 125.134 241.591 131.636 245.28C128.685 246.894 125.656 248.369 122.558 249.699ZM122.472 250.681C119.356 252.003 116.171 253.179 112.924 254.206C117.59 257.476 122.188 260.822 126.699 264.233L126.621 264.036C129.923 262.74 133.134 261.388 136.253 259.981C131.706 256.833 127.109 253.732 122.472 250.681ZM137.172 259.564C132.637 256.419 128.052 253.319 123.426 250.27C126.531 248.918 129.565 247.42 132.523 245.783C137.555 248.64 142.576 251.516 147.586 254.41C144.24 256.201 140.768 257.919 137.172 259.564ZM137.084 260.558C133.92 261.995 130.662 263.375 127.311 264.697C132.389 268.55 137.356 272.487 142.187 276.493C145.357 274.677 148.481 272.809 151.564 270.895C146.803 267.4 141.973 263.953 137.084 260.558ZM152.356 270.401C147.636 266.933 142.847 263.51 138.001 260.139C141.616 258.474 145.106 256.734 148.47 254.92C153.343 257.737 158.206 260.572 163.062 263.425C159.547 265.808 155.981 268.136 152.356 270.401ZM15.0444 191.722C10.0641 189.613 5.11614 187.601 0.211151 185.694C-0.968827 182.297 -2.2243 178.412 -3.42402 174.198C1.83882 176.767 7.07309 179.343 12.2807 181.928C13.0804 185.258 14.006 188.542 15.0444 191.722ZM13.0285 181.33C18.9508 184.271 24.8387 187.223 30.695 190.187C31.0182 187.314 31.3968 184.443 31.8263 181.576C24.8749 177.893 17.9069 174.199 10.9378 170.5C11.4766 174.11 12.1789 177.745 13.0285 181.33ZM31.5218 190.606C36.8369 193.299 42.1261 196.003 47.3914 198.718C48.3225 196.237 49.2519 193.763 50.1796 191.295C44.3516 188.21 38.5021 185.113 32.6402 182.007C32.2148 184.871 31.8405 187.737 31.5218 190.606ZM48.1691 199.119C53.1922 201.711 58.1937 204.314 63.1754 206.928L66.5127 199.938C61.3484 197.206 56.16 194.46 50.954 191.705C50.0273 194.17 49.0991 196.641 48.1691 199.119ZM63.9447 207.332C68.9038 209.937 73.8434 212.553 78.7653 215.182C80.0721 212.95 81.3757 210.72 82.6762 208.49L74.7614 204.302L67.2813 200.345L63.9447 207.332ZM79.5319 215.592C84.4628 218.227 89.3759 220.876 94.2732 223.537C95.7919 221.374 97.3072 219.205 98.8191 217.032C93.675 214.309 88.548 211.597 83.4445 208.896C82.1435 211.127 80.8393 213.359 79.5319 215.592ZM95.0414 223.955C100.691 227.029 106.32 230.12 111.93 233.231C114.011 231.267 116.061 229.266 118.083 227.233C111.903 223.959 105.736 220.693 99.5924 217.442C98.0788 219.617 96.5618 221.788 95.0414 223.955ZM112.727 233.673C119.351 237.35 125.949 241.053 132.527 244.787C135.466 243.142 138.327 241.359 141.103 239.441C133.691 235.506 126.279 231.576 118.885 227.658C116.862 229.697 114.81 231.703 112.727 233.673ZM133.408 245.287C138.445 248.149 143.469 251.028 148.484 253.925C151.758 252.148 154.908 250.301 157.935 248.384C152.616 245.555 147.29 242.725 141.963 239.897C139.194 241.829 136.34 243.627 133.408 245.287ZM163.829 262.868L163.795 262.927C166.916 260.8 169.996 258.63 173.039 256.424C168.307 253.903 163.564 251.378 158.814 248.851C155.788 250.783 152.637 252.644 149.364 254.434C154.194 257.228 159.015 260.039 163.829 262.868ZM-3.7394 173.077C1.54256 175.654 6.7957 178.238 12.022 180.83C11.1916 177.239 10.5084 173.603 9.98855 169.997C4.4451 167.055 -1.0986 164.11 -6.63474 161.166C-5.78169 165.309 -4.78666 169.315 -3.7394 173.077ZM31.9645 180.665C24.9155 176.931 17.8497 173.184 10.7833 169.434C10.2451 165.604 9.89351 161.81 9.74803 158.144C17.7206 162.369 25.7037 166.578 33.6806 170.768C33.0461 174.063 32.4718 177.362 31.9645 180.665ZM50.4878 190.475C44.603 187.36 38.6963 184.232 32.7773 181.096C33.2811 177.79 33.8524 174.488 34.4844 171.19C40.9689 174.596 47.449 177.988 53.9155 181.367C52.7753 184.394 51.6328 187.43 50.4878 190.475ZM66.887 199.154C61.7008 196.41 56.4903 193.652 51.2621 190.885C52.4077 187.838 53.5507 184.801 54.6914 181.772C60.1726 184.636 65.6438 187.489 71.0995 190.331L70.3916 191.813L70.2472 192.116L70.2416 192.127L70.2392 192.132L70.2389 192.133L70.2356 192.14L69.6856 193.292L66.887 199.154ZM83.1137 207.739L75.1682 203.536L74.5223 203.194L67.6557 199.561L70.47 193.667L70.7871 193.003L70.7881 193.001L70.8006 192.974L70.9233 192.717L71.871 190.732C77.2962 193.558 82.7059 196.373 88.0944 199.175C86.4393 202.028 84.7791 204.883 83.1137 207.739ZM99.3183 216.315C94.1535 213.581 89.0059 210.857 83.882 208.146C85.5484 205.287 87.2096 202.431 88.8657 199.577C91.6943 201.048 94.517 202.515 97.333 203.98L97.4462 204.039L100.596 205.677L105.07 208.003C103.158 210.778 101.241 213.549 99.3183 216.315ZM118.721 226.589C112.495 223.29 106.281 220 100.092 216.724C102.015 213.957 103.934 211.184 105.846 208.407C112.539 211.887 119.276 215.393 126.038 218.917C123.639 221.519 121.202 224.078 118.721 226.589ZM141.903 238.882C134.437 234.919 126.971 230.961 119.523 227.014C122.002 224.5 124.439 221.937 126.836 219.333C134.81 223.488 142.818 227.669 150.829 231.864C147.968 234.366 144.989 236.708 141.903 238.882ZM158.776 247.847C153.443 245.011 148.101 242.173 142.759 239.337C145.832 237.153 148.798 234.802 151.649 232.293C157.239 235.221 162.829 238.156 168.409 241.094C165.357 243.431 162.145 245.682 158.776 247.847ZM173.813 255.862L173.817 255.854C169.105 253.343 164.382 250.829 159.652 248.313C163.008 246.141 166.208 243.882 169.252 241.538C173.892 243.982 178.526 246.428 183.145 248.874C180.071 251.237 176.961 253.569 173.813 255.862ZM9.8399 168.933C4.27127 165.978 -1.29732 163.02 -6.85795 160.063C-7.61909 156.23 -8.25331 152.291 -8.6907 148.331C-2.84988 151.453 3.00369 154.568 8.86333 157.675C8.99005 161.327 9.32198 165.11 9.8399 168.933ZM9.71336 157.143C17.7547 161.406 25.8071 165.652 33.8534 169.878C34.6694 165.713 35.5805 161.556 36.573 157.406C28.2265 153.239 19.5193 148.87 10.6033 144.357C10.0505 147.134 9.74194 149.925 9.68797 152.693C9.65983 154.149 9.66876 155.634 9.71336 157.143ZM34.6564 170.3C41.1864 173.73 47.7119 177.146 54.2237 180.549C55.7479 176.503 57.2679 172.474 58.7841 168.461C52.0141 165.098 44.84 161.533 37.3714 157.805C36.3796 161.962 35.4699 166.128 34.6564 170.3ZM54.9996 180.954C60.5028 183.829 65.996 186.694 71.4736 189.547L77.1771 177.601C72.447 175.244 67.3267 172.702 61.8841 170L59.5662 168.849C58.0479 172.868 56.5258 176.903 54.9996 180.954ZM72.245 189.949C77.6909 192.785 83.1211 195.611 88.5302 198.424C90.7969 194.516 93.054 190.613 95.3016 186.717C90.4374 184.23 84.5911 181.297 77.9551 177.989L72.245 189.949ZM97.7335 203.211C100.336 204.564 102.948 205.922 105.566 207.283C108.101 203.6 110.626 199.911 113.141 196.221C110.152 194.591 107.3 193.04 104.616 191.587C102.312 190.338 99.442 188.839 96.0757 187.113C93.8272 191.011 91.5691 194.916 89.3014 198.825C91.9453 200.201 94.5841 201.573 97.217 202.942L97.5398 203.11L97.7335 203.211ZM106.342 207.687C113.072 211.187 119.846 214.711 126.647 218.255C129.607 215.026 132.509 211.734 135.36 208.39C127.792 204.237 120.527 200.252 113.907 196.639C111.395 200.324 108.874 204.009 106.342 207.687ZM127.444 218.671C135.448 222.842 143.486 227.038 151.525 231.249C154.692 228.431 157.711 225.415 160.569 222.21C152.957 218.045 145.591 214.004 138.599 210.167L137.944 209.808L136.137 208.817C133.293 212.156 130.398 215.445 127.444 218.671ZM152.343 231.677C157.954 234.616 163.565 237.562 169.165 240.511C172.599 237.843 175.828 235.066 178.846 232.182C172.912 228.954 167.061 225.761 161.346 222.635C158.499 225.839 155.493 228.856 152.343 231.677ZM170.004 240.953C174.646 243.398 179.28 245.846 183.9 248.292C187.284 245.682 190.625 243.033 193.929 240.357C189.134 237.768 184.363 235.181 179.643 232.615C176.635 235.503 173.421 238.283 170.004 240.953ZM-8.80127 147.287C-2.93376 150.425 2.94683 153.555 8.83375 156.677C8.80052 155.323 8.79612 153.988 8.82154 152.677C8.87703 149.779 9.20704 146.856 9.79989 143.95C3.70342 140.862 -2.48823 137.707 -8.72665 134.503C-9.19781 138.387 -9.26386 142.281 -8.9133 146.125C-8.87793 146.513 -8.84057 146.9 -8.80127 147.287ZM-9.42614 133.167C-15.0879 130.257 -20.7857 127.306 -26.4833 124.329C-26.4455 121.792 -26.2884 119.301 -25.9939 116.869C-25.7148 114.561 -25.2512 112.356 -24.6543 110.211C-18.1361 113.414 -11.8311 116.467 -5.7341 119.384C-7.52339 123.888 -8.76048 128.516 -9.42614 133.167ZM9.98716 143.072C3.8676 139.972 -2.34716 136.804 -8.60815 133.588C-7.96552 128.923 -6.7391 124.279 -4.94883 119.759C2.03042 123.094 8.73587 126.248 15.1756 129.241C12.7854 133.674 11.0391 138.344 9.98716 143.072ZM36.7815 156.54C28.4258 152.367 19.71 147.994 10.7868 143.477C11.8193 138.738 13.5617 134.052 15.9628 129.606C24.7683 133.694 33.0743 137.477 40.9017 141.004C39.4204 146.168 38.038 151.348 36.7815 156.54ZM59.0926 167.644C52.2917 164.266 45.0835 160.684 37.5794 156.938C38.8356 151.734 40.219 146.542 41.7024 141.365C50.0355 145.116 57.8225 148.576 65.0888 151.801C63.096 157.057 61.0976 162.337 59.0926 167.644ZM77.5513 176.818C72.8242 174.462 67.7083 171.922 62.2708 169.222L59.8747 168.032C61.8841 162.714 63.887 157.422 65.8841 152.154L66.7508 152.539L66.7933 152.558L66.7961 152.559C73.2027 155.402 79.334 158.123 85.2172 160.766C82.6715 166.095 80.1174 171.444 77.5513 176.818ZM95.7359 185.964C90.8569 183.47 84.9901 180.526 78.3292 177.206C80.9004 171.821 83.4594 166.462 86.01 161.122C92.6455 164.105 98.9648 166.99 105.007 169.84C101.935 175.197 98.8446 180.574 95.7359 185.964ZM113.632 195.5C110.616 193.854 107.737 192.289 105.03 190.822C102.729 189.576 99.8661 188.08 96.5099 186.36C99.6232 180.962 102.718 175.577 105.795 170.212C110.822 172.589 115.656 174.944 120.322 177.312C121.733 178.027 123.121 178.747 124.491 179.472C120.893 184.805 117.274 190.153 113.632 195.5ZM135.934 207.715C128.338 203.546 121.045 199.545 114.398 195.918C118.041 190.568 121.663 185.217 125.262 179.881C133.2 184.11 140.518 188.498 147.8 193.135C143.931 198.072 139.983 202.944 135.934 207.715ZM161.159 221.543C153.247 217.215 145.601 213.02 138.362 209.047L137.981 208.838L136.711 208.141C140.746 203.383 144.68 198.526 148.536 193.604C154.943 197.7 161.337 201.991 168.116 206.541L168.17 206.578C168.89 207.061 169.612 207.545 170.336 208.031C168.494 211.072 166.729 214.008 165.061 216.846C163.798 218.453 162.496 220.019 161.159 221.543ZM179.502 231.55C173.545 228.311 167.671 225.105 161.934 221.967C163.25 220.463 164.531 218.919 165.776 217.335C167.457 214.481 169.221 211.547 171.058 208.515C176.705 212.301 182.496 216.166 188.722 220.191C187.151 222.449 185.576 224.697 183.999 226.932C182.558 228.5 181.058 230.039 179.502 231.55ZM194.66 239.765C189.839 237.162 185.042 234.562 180.297 231.982C181.809 230.508 183.269 229.006 184.674 227.477C186.27 225.216 187.863 222.943 189.45 220.662C194.475 223.902 199.786 227.249 205.534 230.744C201.948 233.776 198.326 236.787 194.66 239.765ZM189.946 219.948C195.029 223.227 200.406 226.614 206.231 230.154C210.335 226.677 214.393 223.174 218.416 219.665C211.075 215.962 204.421 211.992 198.234 207.864C195.495 211.91 192.729 215.942 189.946 219.948ZM171.508 207.772C177.169 211.568 182.975 215.442 189.217 219.478C192 215.471 194.768 211.434 197.513 207.381C191.177 203.117 185.328 198.691 179.729 194.225C177.979 197.129 176.206 200.044 174.456 202.92L174.261 203.241C173.327 204.776 172.409 206.286 171.508 207.772ZM173.715 202.47C172.72 204.105 171.743 205.71 170.787 207.288C170.055 206.797 169.327 206.308 168.599 205.82C161.84 201.284 155.463 197.004 149.073 192.917C152.867 188.061 156.586 183.143 160.253 178.2C162.53 180.067 164.807 181.96 167.099 183.867C171.015 187.124 174.966 190.411 179.046 193.678C177.278 196.615 175.485 199.562 173.715 202.47ZM159.58 177.65C155.893 182.621 152.153 187.565 148.338 192.448C141.04 187.799 133.707 183.4 125.75 179.156C129.743 173.234 133.708 167.329 137.643 161.465C145.303 166.283 152.451 171.825 159.58 177.65ZM136.907 161.005C132.96 166.886 128.984 172.807 124.979 178.747C123.579 178.005 122.159 177.269 120.715 176.536C116.061 174.174 111.239 171.826 106.229 169.456C109.764 163.289 113.276 157.148 116.764 151.042C124.007 153.713 130.633 157.114 136.907 161.005ZM115.936 150.741C112.461 156.824 108.963 162.941 105.441 169.084C99.3793 166.225 93.0407 163.331 86.3844 160.338C88.9023 155.066 91.4122 149.813 93.9175 144.571C97.8215 145.691 101.765 146.735 105.753 147.697C109.289 148.549 112.675 149.571 115.936 150.741ZM93.0712 144.327C90.5837 149.532 88.0916 154.748 85.5916 159.982C79.7044 157.338 73.5694 154.615 67.1587 151.77L67.1452 151.764L66.1925 151.341C67.9834 146.618 69.7698 141.915 71.5523 137.229C78.6154 139.83 85.7757 142.211 93.0712 144.327ZM70.7374 136.928C68.9614 141.596 67.1815 146.282 65.3971 150.988C58.1117 147.754 50.3028 144.285 41.9448 140.522C43.2659 135.945 44.6638 131.38 46.1197 126.827C54.2343 130.451 62.4194 133.842 70.7374 136.928ZM45.3218 126.469C43.8654 131.021 42.4667 135.585 41.1443 140.161C33.3682 136.657 25.1202 132.899 16.3798 128.843C17.6406 126.538 18.8904 124.224 20.1398 121.908L20.2989 121.613C21.2956 119.768 22.3054 117.899 23.3261 116.026C30.6328 119.662 37.9491 123.161 45.3218 126.469ZM19.3759 121.495C18.1181 123.826 16.8602 126.156 15.5921 128.477C9.12451 125.472 2.38883 122.303 -4.62306 118.953C-4.09888 117.682 -3.5299 116.421 -2.91654 115.173C-1.27535 111.832 0.396942 108.476 2.08908 105.127C8.92729 108.719 15.7343 112.237 22.5481 115.638C21.4775 117.603 20.4192 119.563 19.3759 121.495ZM-3.69585 114.79C-4.31052 116.041 -4.88127 117.304 -5.40766 118.578C-11.5307 115.649 -17.8634 112.582 -24.4111 109.365C-23.0497 104.771 -21.0997 100.434 -19.0757 95.9327C-18.8299 95.3864 -18.5833 94.8381 -18.3369 94.2873L-16.5837 95.2217L-16.5808 95.2233C-10.5725 98.4256 -4.61363 101.602 1.32064 104.723C-0.374955 108.079 -2.05082 111.442 -3.69585 114.79ZM180.181 193.474C185.791 197.951 191.651 202.389 197.999 206.662C201.236 201.875 204.437 197.067 207.586 192.265C201.035 188.106 194.993 183.802 188.857 178.816C188.462 179.375 188.093 179.958 187.751 180.562C185.397 184.727 182.82 189.085 180.181 193.474ZM219.121 219.05C211.694 215.321 204.969 211.314 198.721 207.145C201.963 202.35 205.168 197.537 208.32 192.729C215.628 197.332 223.591 201.781 233.029 206.814L232.729 207.079C228.224 211.057 223.694 215.057 219.121 219.05ZM167.671 183.213L167.665 183.208L167.664 183.207L167.654 183.199C165.349 181.282 163.06 179.378 160.771 177.502C164.335 172.688 167.851 167.852 171.339 163.024C177.314 168.888 182.793 173.847 188.182 178.265C187.759 178.864 187.363 179.488 186.997 180.135C184.663 184.261 182.112 188.578 179.498 192.927C175.461 189.692 171.549 186.438 167.671 183.213ZM160.098 176.951C163.678 172.116 167.209 167.258 170.713 162.408C170.097 161.802 169.477 161.185 168.85 160.559C163.213 154.923 156.408 149.328 149.193 144.26C146.179 148.743 143.183 153.209 140.204 157.648L140.202 157.65L140.11 157.787L138.128 160.741C145.803 165.571 152.961 171.12 160.098 176.951ZM137.392 160.282L139.274 157.478L139.275 157.477L139.39 157.304C142.403 152.814 145.433 148.297 148.481 143.763C141.751 139.086 134.687 134.879 127.899 131.532L125.246 136.181L125.115 136.411C122.491 141.01 119.852 145.634 117.2 150.277C124.464 152.966 131.105 156.38 137.392 160.282ZM116.373 149.975C119.049 145.289 121.712 140.623 124.36 135.982L124.492 135.751L124.684 135.415L124.685 135.413L124.687 135.409L124.688 135.408L127.118 131.15C123.164 129.233 119.313 127.616 115.684 126.375C111.796 125.045 107.949 124.02 104.148 123.177C100.867 130.035 97.5855 136.897 94.2968 143.778C98.1439 144.879 102.029 145.907 105.957 146.855C109.577 147.727 113.041 148.775 116.373 149.975ZM93.4504 143.534C96.7306 136.671 100.003 129.827 103.276 122.987C98.2925 121.914 93.3889 121.139 88.5755 120.378L88.557 120.375C85.275 119.856 81.9607 119.331 78.6129 118.71C76.3678 124.586 74.1176 130.487 71.8613 136.417C78.9479 139.027 86.1314 141.414 93.4504 143.534ZM71.0464 136.116C73.285 130.233 75.5176 124.377 77.7452 118.547C69.8634 117.046 61.7962 114.969 53.5287 111.132C52.9062 110.843 52.2833 110.551 51.6599 110.257C49.8458 115.485 48.0783 120.731 46.3867 125.994C54.5161 129.626 62.7151 133.024 71.0464 136.116ZM45.589 125.637C47.2835 120.368 49.0537 115.116 50.8703 109.884C44.4755 106.848 38.0402 103.563 31.6239 100.162C30.5218 102.804 29.2442 105.407 27.7952 107.962C26.4296 110.37 25.0771 112.818 23.7426 115.262C31.0004 118.874 38.2673 122.349 45.589 125.637ZM22.9645 114.874C24.306 112.417 25.666 109.955 27.0393 107.532C28.4845 104.984 29.757 102.387 30.8527 99.7531C23.9061 96.0611 16.9845 92.2413 10.1635 88.4667C9.44551 90.4987 8.57821 92.494 7.56433 94.4434C5.85866 97.7242 4.1607 101.034 2.48136 104.351C9.32792 107.948 16.1429 111.47 22.9645 114.874ZM1.71291 103.947C3.39162 100.631 5.08876 97.323 6.79362 94.0446C7.8116 92.0863 8.67898 90.0818 9.39287 88.0402L8.51866 87.5563L8.49462 87.543C1.71731 83.7912 -5.28746 79.914 -12.0658 76.2981C-12.3718 77.6317 -12.6992 78.9545 -13.0496 80.2653C-14.3013 84.9457 -16.1176 89.2958 -17.9819 93.4914L-16.175 94.4543C-10.1712 97.6544 -4.21678 100.828 1.71291 103.947ZM233.579 206.122L233.372 206.511C238.478 202.001 243.632 197.453 248.856 192.909C240.357 188.379 232.035 183.928 224.005 179.113C218.969 183.419 213.909 187.763 208.915 192.077C216.207 196.662 224.155 201.1 233.579 206.122ZM189.373 178.115C195.523 183.114 201.577 187.424 208.148 191.592C213.135 187.284 218.189 182.944 223.221 178.641C216.093 174.335 209.199 169.728 202.619 164.506C198.827 168.329 194.943 172.256 190.957 176.296C190.396 176.866 189.867 177.473 189.373 178.115ZM190.339 175.687C189.758 176.276 189.211 176.903 188.7 177.566C183.311 173.146 177.831 168.184 171.853 162.314C173.372 160.21 174.886 158.109 176.396 156.012L176.427 155.968L176.445 155.944L176.458 155.926C178.761 152.729 181.078 149.512 183.412 146.29C184.381 147.303 185.344 148.333 186.303 149.378C191.265 154.79 196.491 159.591 201.936 163.962C198.165 167.764 194.302 171.669 190.339 175.687ZM175.752 155.418C174.248 157.508 172.739 159.601 171.226 161.697C170.644 161.122 170.056 160.539 169.464 159.947C163.791 154.274 156.94 148.642 149.676 143.541C153.489 137.87 157.329 132.174 161.194 126.471C168.618 132.02 175.83 138.421 182.801 145.653C180.447 148.902 178.11 152.146 175.787 155.37L175.776 155.385L175.776 155.386L175.752 155.418ZM160.496 125.953C156.626 131.662 152.782 137.366 148.964 143.044C142.218 138.356 135.138 134.138 128.33 130.777C131.763 124.76 135.225 118.695 138.713 112.597C146.149 116.265 153.418 120.723 160.496 125.953ZM137.932 112.216C134.445 118.314 130.983 124.377 127.549 130.395C123.544 128.45 119.641 126.81 115.966 125.553C112.108 124.233 108.296 123.214 104.533 122.373C107.556 116.056 110.579 109.743 113.609 103.42C117.759 104.46 121.89 105.661 125.943 107.136C129.983 108.605 133.981 110.299 137.932 112.216ZM112.748 103.207C109.714 109.537 106.688 115.858 103.662 122.181C98.601 121.085 93.6279 120.298 88.7462 119.525L88.7461 119.525L88.7459 119.525L88.7457 119.525L88.7455 119.525L88.7453 119.525L88.7105 119.519C85.4813 119.008 82.2206 118.492 78.9284 117.884C81.5036 111.145 84.0725 104.439 86.6368 97.7612C90.0046 98.4847 93.3567 99.1418 96.6731 99.7918L96.681 99.7934C101.98 100.832 107.377 101.89 112.748 103.207ZM85.7776 97.5752C83.2103 104.261 80.6386 110.975 78.0604 117.722C70.1842 116.229 62.1282 114.165 53.8932 110.343C53.2449 110.042 52.5961 109.738 51.9469 109.432C54.2953 102.685 56.7187 95.9692 59.1541 89.2887C61.0164 90.0625 62.888 90.8131 64.7692 91.5379C71.7131 94.2126 78.7756 96.0479 85.7776 97.5752ZM58.3518 88.9537C55.9212 95.6213 53.5021 102.324 51.1574 109.058C44.7791 106.029 38.3581 102.749 31.9548 99.3548C33.4952 95.528 34.6684 91.6247 35.462 87.6796C36.0353 84.83 36.6067 81.9511 37.176 79.0511C44.1119 82.5815 51.1633 85.9372 58.3518 88.9537ZM34.6103 87.5092C33.8333 91.3721 32.6867 95.1951 31.1828 98.945C24.2218 95.2446 17.2847 91.4153 10.4492 87.6321C11.378 84.8312 12.0251 81.9637 12.3833 79.0529C12.8941 74.8983 13.4002 70.7314 13.9013 66.5562C21.2722 70.6418 28.7526 74.743 36.3715 78.6405C35.7866 81.6218 35.1994 84.581 34.6103 87.5092ZM11.5222 78.9474C11.1772 81.7474 10.5596 84.5066 9.67598 87.2041L8.9157 86.7832L8.86091 86.7529C2.02668 82.9705 -5.03609 79.0615 -11.8675 75.4187C-10.3453 68.549 -9.37975 61.3973 -8.76004 54.1037C-2.57164 57.4092 3.65041 60.8646 9.67488 64.2103L9.67504 64.2104L9.67668 64.2113L9.67698 64.2115L9.69499 64.2215C10.8214 64.8471 11.9502 65.4742 13.0817 66.1018C12.5671 70.3937 12.0471 74.677 11.5222 78.9474ZM203.234 163.886C209.835 169.116 216.757 173.731 223.917 178.046C230.625 172.312 237.286 166.65 243.688 161.227C235.927 156.139 228.789 150.91 221.781 145.281C215.838 151.21 209.67 157.398 203.234 163.886ZM249.558 192.298C241.057 187.768 232.733 183.322 224.701 178.517C231.403 172.789 238.055 167.136 244.447 161.723C251.837 166.534 259.802 171.226 268.761 176.02C262.232 181.386 255.844 186.837 249.558 192.298ZM202.551 163.342C197.11 158.981 191.892 154.191 186.942 148.794C185.943 147.704 184.939 146.631 183.929 145.576C188.839 138.803 193.826 132.01 198.916 125.326C206.565 132.441 213.77 138.811 221.1 144.732C215.157 150.663 208.988 156.852 202.551 163.342ZM183.318 144.94C188.219 138.181 193.196 131.402 198.277 124.731C195.73 122.355 193.132 119.897 190.463 117.344C186.31 113.373 181.387 109.003 176.108 104.655C171.264 111.67 166.454 118.714 161.682 125.752C169.117 131.306 176.338 137.709 183.318 144.94ZM160.984 125.233C165.764 118.184 170.582 111.128 175.435 104.102C168.236 98.2068 160.417 92.3823 153.016 87.6726C148.351 95.7677 143.726 103.834 139.145 111.842C146.601 115.523 153.889 119.993 160.984 125.233ZM138.365 111.459C142.961 103.425 147.602 95.3313 152.282 87.2086C147.974 84.4998 143.819 82.1836 140.027 80.4684C136.05 78.6694 131.633 77.0722 126.952 75.6112C122.606 84.6562 118.292 93.6477 113.992 102.62C118.109 103.656 122.21 104.853 126.239 106.319C130.326 107.805 134.369 109.519 138.365 111.459ZM113.131 102.406C117.438 93.4184 121.76 84.4118 126.113 75.3517C117.617 72.7465 108.294 70.5713 99.1661 68.4414L99.1657 68.4413L99.1391 68.4351L99.0137 68.4058L98.0375 68.1779C94.3477 77.7179 90.6545 87.3001 86.9522 96.94C90.2652 97.65 93.5637 98.2967 96.8276 98.9366L96.8311 98.9373L96.8313 98.9373L96.8398 98.939C102.211 99.9916 107.683 101.064 113.131 102.406ZM86.0928 96.7544C89.7968 87.1098 93.4916 77.5229 97.183 67.9783C90.8329 66.4941 84.8325 65.0701 79.447 63.5444C76.0678 62.5874 72.7777 61.6253 69.5619 60.6522C67.1036 67.558 64.5831 74.445 62.0967 81.2386L62.0965 81.2393L62.0962 81.24L62.096 81.2407L62.0849 81.271C61.2078 83.6671 60.329 86.0679 59.4514 88.4734C61.3188 89.2498 63.1954 90.0027 65.0813 90.7294C72.0146 93.3986 79.0821 95.229 86.0928 96.7544ZM58.6493 88.1382C59.5213 85.748 60.3945 83.3623 61.266 80.9813L61.2661 80.9811L61.2693 80.9722C63.7545 74.1831 66.2738 67.3005 68.7305 60.3998C59.4766 57.5827 50.8318 54.6688 42.4391 51.5147C40.7668 60.432 39.0682 69.391 37.3497 78.1653C44.3277 81.7222 51.4206 85.1029 58.6493 88.1382ZM36.5452 77.7542C38.2568 69.011 39.9488 60.0862 41.6146 51.2038C33.2587 48.0416 25.1419 44.6357 16.9099 40.8438C15.9666 49.1156 14.9998 57.3865 14.0128 65.626C21.4049 69.724 28.9066 73.841 36.5452 77.7542ZM13.1931 65.1715C14.1765 56.9549 15.1399 48.7079 16.08 40.4603C8.37026 36.888 0.549258 32.9735 -7.67334 28.6002C-7.78778 36.8268 -8.02869 45.0767 -8.68184 53.1601C-2.41606 56.504 3.88695 60.0041 9.98749 63.3918L9.98906 63.3927L9.99191 63.3943L10.1167 63.4635L10.1352 63.4739C11.1525 64.0388 12.1718 64.6049 13.1931 65.1715ZM245.139 161.136C252.537 165.942 260.513 170.631 269.488 175.423C277.037 169.236 284.777 163.165 292.767 157.327C283.614 152.439 275.136 147.685 267.007 142.685C260.381 148.261 252.962 154.513 245.139 161.136ZM222.4 144.663C229.428 150.304 236.588 155.543 244.38 160.641C252.191 154.028 259.603 147.781 266.23 142.205C257.855 137.023 249.842 131.564 241.833 125.408C235.602 131.537 229.146 137.934 222.4 144.663ZM241.137 124.872C234.911 130.998 228.46 137.391 221.719 144.115C214.359 138.173 207.126 131.78 199.444 124.633C204.976 117.387 210.63 110.275 216.442 103.462C224.929 111.613 233.036 118.605 241.137 124.872ZM215.815 102.858C209.997 109.675 204.34 116.79 198.806 124.037C196.281 121.683 193.707 119.247 191.063 116.718C186.882 112.719 181.922 108.319 176.603 103.939C181.861 96.3304 187.16 88.7584 192.496 81.2709C201.881 89.3192 209.383 96.5442 212.893 100.006C213.872 100.972 214.846 101.923 215.815 102.858ZM191.834 80.7047C186.494 88.1968 181.192 95.7732 175.929 103.386C168.711 97.4796 160.872 91.6442 153.449 86.9215C158.199 78.6799 162.99 70.409 167.815 62.1386C176.266 67.8912 184.586 74.5188 191.834 80.7047ZM167.096 61.6512C162.265 69.9295 157.47 78.2083 152.715 86.4576C148.381 83.7337 144.202 81.4036 140.385 79.6771C136.406 77.878 131.999 76.2808 127.331 74.8204C131.68 65.7701 136.061 56.6653 140.492 47.4721C145.389 49.4666 150.013 51.5833 154.188 53.8066C158.434 56.0668 162.778 58.7401 167.096 61.6512ZM139.686 47.1455C135.244 56.3613 130.852 65.4881 126.493 74.5603C117.928 71.9268 108.533 69.7352 99.3371 67.5904L99.2042 67.5594L98.3536 67.3607C102.245 57.3029 106.132 47.2916 110.022 37.309C120.058 40.0744 130.345 43.3887 139.686 47.1455ZM109.18 37.0779C105.285 47.0709 101.394 57.0927 97.4991 67.1611C91.1148 65.6685 85.0837 64.2383 79.6846 62.7098C76.324 61.7581 73.0517 60.8013 69.853 59.8335C73.3616 49.9547 76.735 40.0437 79.6908 30.3193C80.9561 30.5789 82.2354 30.8336 83.5295 31.0836C91.2533 32.5758 100.1 34.6003 109.18 37.0779ZM78.8373 30.143C75.8879 39.8403 72.5223 49.7262 69.0216 59.5813C59.7193 56.75 51.0339 53.8209 42.6016 50.6479C43.4091 46.3392 44.2103 42.042 45.0047 37.7819L45.0176 37.7125L45.0209 37.6948L45.0209 37.6947L45.022 37.6888L45.375 35.7966L45.3753 35.7948C46.2535 31.0871 47.1172 26.4566 47.9646 21.9529C57.5345 25.1035 67.6416 27.8154 78.8373 30.143ZM44.1692 37.5298C43.3785 41.7703 42.5809 46.0476 41.7772 50.3365C33.4033 47.1635 25.2683 43.7442 17.0135 39.9346C18.1102 30.3001 19.1748 20.6657 20.2018 11.0793C29.0241 15.0644 37.8306 18.5802 47.1327 21.6774C46.1657 26.8216 45.1761 32.1278 44.1692 37.5298ZM19.3692 10.7019C18.3432 20.2857 17.2795 29.9177 16.1836 39.5504C8.44899 35.9599 0.599016 32.0232 -7.66032 27.6223C-7.61837 24.3325 -7.59484 21.0476 -7.57145 17.7798L-7.57129 17.757C-7.52025 10.668 -7.47194 3.95784 -7.23921 -2.55427C1.98525 2.35158 10.6927 6.75431 19.3692 10.7019Z" fill="url(#paint0_linear_4292_19642)"/>
<defs>
<linearGradient id="paint0_linear_4292_19642" x1="-8.96011" y1="246.938" x2="223.176" y2="65.2248" gradientUnits="userSpaceOnUse">
<stop stop-color="#00A276"/>
<stop offset="1" stop-color="#00A276" stop-opacity="0"/>
</linearGradient>
</defs>
</svg>
