<svg width="64" height="64" viewBox="0 0 64 64" fill="none" xmlns="http://www.w3.org/2000/svg">
<rect width="64" height="64" rx="32" fill="#53C0D8"/>
<path d="M32 47C40.2843 47 47 40.2843 47 32C47 23.7157 40.2843 17 32 17C23.7157 17 17 23.7157 17 32C17 40.2843 23.7157 47 32 47Z" stroke="white" stroke-width="2" stroke-linecap="round" stroke-linejoin="round"/>
<path d="M32.875 40.125C32.875 40.6082 32.4832 41 32 41C31.5168 41 31.125 40.6082 31.125 40.125C31.125 39.6418 31.5168 39.25 32 39.25C32.4832 39.25 32.875 39.6418 32.875 40.125Z" fill="white" stroke="white" stroke-width="2"/>
<path d="M32 34.501V33.251C32.8653 33.251 33.7112 32.9944 34.4306 32.5137C35.1501 32.0329 35.7108 31.3496 36.042 30.5502C36.3731 29.7508 36.4597 28.8711 36.2909 28.0225C36.1221 27.1738 35.7054 26.3942 35.0936 25.7824C34.4817 25.1705 33.7022 24.7539 32.8535 24.585C32.0049 24.4162 31.1252 24.5029 30.3258 24.834C29.5263 25.1651 28.8431 25.7259 28.3623 26.4454C27.8816 27.1648 27.625 28.0107 27.625 28.876" stroke="white" stroke-width="2" stroke-linecap="round" stroke-linejoin="round"/>
</svg>
